<svg width="22" height="19" fill="none" xmlns="http://www.w3.org/2000/svg"><path fill-rule="evenodd" clip-rule="evenodd" d="M11.528 18.642l7.965-8.055a5.79 5.79 0 000-8.117A5.677 5.677 0 0015.43.77a5.704 5.704 0 00-4.069 1.7l-.358.362-.36-.363a5.53 5.53 0 00-.297-.285c-2.111-1.876-5.407-1.9-7.55.009a5.79 5.79 0 00-.288 8.395l7.968 8.054a.748.748 0 001.053 0zm-8.361-8.7l7.835 7.92 7.831-7.92c1.865-1.931 1.864-4.9-.003-6.83a4.754 4.754 0 00-3.401-1.42 4.76 4.76 0 00-3.407 1.42l-.005.006-1.015 1.028L9.98 3.112c-1.741-1.797-4.692-1.904-6.57-.23m-.243 7.06c-1.865-1.932-1.864-4.9.003-6.83.077-.08.157-.156.24-.23" fill="#444"/></svg>